<svg width="32" height="32" viewBox="0 0 32 32" fill="none" xmlns="http://www.w3.org/2000/svg"><g id="medium"><path id="Rectangle 2 Copy 3" opacity=".01" fill="#EFF3F6" d="M0 0h32v32H0z"/><path id="Shape" d="M9.897 11.652a.642.642 0 00-.201-.535L8.202 9.275V9h4.638l3.586 8.048L19.578 9H24v.275l-1.277 1.253a.386.386 0 00-.142.367v9.21a.386.386 0 00.142.366l1.247 1.254V22h-6.274v-.275l1.292-1.284c.127-.13.127-.168.127-.367V12.63l-3.593 9.34h-.486l-4.183-9.34v6.26a.876.876 0 00.232.718l1.68 2.086v.275H8v-.275l1.68-2.086c.18-.19.26-.457.217-.718v-7.238z" fill="#3E3F58"/></g></svg>