<?xml version="1.0" encoding="utf-8"?><svg width="20" height="20" fill="none" xmlns="http://www.w3.org/2000/svg" viewBox="0 0 20 20"><path fill-rule="evenodd" clip-rule="evenodd" d="M10.896 3.414a2 2 0 012.829 0l2.828 2.829a2 2 0 010 2.828L9.605 16.02a.5.5 0 01-.307.144l-3.716.35a2 2 0 01-2.176-2.207l.396-3.642a.5.5 0 01.143-.3l6.951-6.95zm.707 2.122a1 1 0 011.414 0l1.414 1.415a1 1 0 010 1.414l-.708.708-2.828-2.829.708-.708zM9.48 7.66l-3.537 3.537-.414 2.066a1 1 0 001.177 1.176l2.065-.413 3.537-3.537L9.48 7.659z" fill="#F05D63"/></svg>