<?xml version="1.0" encoding="utf-8"?><svg width="32" height="32" fill="none" xmlns="http://www.w3.org/2000/svg" viewBox="0 0 32 32"><g opacity=".98"><path opacity=".01" fill="#EFF3F6" d="M0 0h32v32H0z"/><mask id="ga" fill="#fff"><path fill-rule="evenodd" clip-rule="evenodd" d="M17.647 22.4c0 .88-.741 1.6-1.647 1.6s-1.647-.72-1.647-1.6h3.294zM16 11.512l-.787.181c-1.515.349-2.566 1.643-2.566 3.107V19.6h8.317l.389-.4.412.4L23 20.8v.8H9v-.8l1.235-1.2.412-.4v-4.4c0-2.456 1.754-4.512 4.118-5.056V9.2c0-.664.551-1.2 1.235-1.2.683 0 1.235.536 1.235 1.2v.544c2.364.544 4.118 2.6 4.118 5.056v4.4h-2v-4.4c0-1.464-1.05-2.758-2.566-3.107L16 11.512z"/></mask><path d="M17.647 22.4h2v-2h-2v2zm-3.294 0v-2h-2v2h2zm.86-10.707l.449 1.95-.449-1.95zm.787-.181l.449-1.95L16 9.46l-.449.103.449 1.949zM12.647 19.6h-2v2h2v-2zm8.317 0v2h.846l.589-.606-1.435-1.394zm.8 0l-1.393 1.435 1.394-1.435zM23 20.8h2v-.846l-.606-.589L23 20.8zm0 .8v2h2v-2h-2zm-14 0H7v2h2v-2zm0-.8l-1.394-1.435-.606.59v.845h2zm1.235-1.2l-1.393-1.435 1.393 1.435zm.412-.4l1.394 1.435.606-.59V19.2h-2zm4.118-9.456l.448 1.949 1.552-.357V9.744h-2zm2.47 0h-2v1.592l1.552.357.448-1.949zm2.118 9.456h-2v2h2v-2zm-2.566-7.507l-.449 1.95.449-1.95zM16 26c1.955 0 3.647-1.561 3.647-3.6h-4c0-.279.21-.4.353-.4v4zm-3.647-3.6c0 2.039 1.692 3.6 3.647 3.6v-4c.144 0 .353.121.353.4h-4zm3.294-2h-1.294v4h1.294v-4zm.353 0h-.353v4H16v-4zm.353 0H16v4h.353v-4zm1.294 0h-1.294v4h1.294v-4zm-1.985-6.758l.787-.181-.898-3.898-.786.181.897 3.898zM14.647 14.8c0-.48.355-1.006 1.015-1.158l-.897-3.898c-2.372.546-4.118 2.607-4.118 5.056h4zm0 4.4v-4.4h-4v4.4h4zm0 .4v-.4h-4v.4h4zm6.317-2h-8.317v4h8.317v-4zm-1.046.206l-.388.4 2.869 2.788.389-.4-2.87-2.788zm3.24.36l-.412-.4-2.787 2.869.412.4 2.787-2.87zm1.236 1.2l-1.236-1.2-2.787 2.869 1.235 1.2 2.788-2.87zM25 21.6v-.8h-4v.8h4zm-2.777 2H23v-4h-.777v4zM21 23.6h1.223v-4H21v4zm-.047 0H21v-4h-.047v4zm-9.906 0h9.906v-4h-9.906v4zm-.047 0h.047v-4H11v4zm-1.223 0H11v-4H9.777v4zM9 23.6h.777v-4H9v4zm-2-2.8v.8h4v-.8H7zm1.842-2.635l-1.236 1.2 2.788 2.87 1.235-1.2-2.787-2.87zm.411-.4l-.411.4 2.787 2.87.412-.4-2.788-2.87zM8.647 14.8v4.4h4v-4.4h-4zm5.67-7.005c-3.212.74-5.67 3.557-5.67 7.005h4c0-1.464 1.05-2.758 2.566-3.107l-.897-3.898zM12.764 9.2v.544h4V9.2h-4zM16 6c-1.733 0-3.235 1.377-3.235 3.2h4c0 .495-.399.8-.765.8V6zm3.235 3.2C19.235 7.377 17.733 6 16 6v4a.784.784 0 01-.765-.8h4zm0 .544V9.2h-4v.544h4zm4.118 5.056c0-3.448-2.458-6.266-5.67-7.005l-.896 3.898c1.515.349 2.566 1.643 2.566 3.107h4zm0 4.4v-4.4h-4v4.4h4zm-4 2h2v-4h-2v4zm-2-6.4v4.4h4v-4.4h-4zm-1.015-1.158c.66.152 1.015.678 1.015 1.158h4c0-2.449-1.747-4.51-4.118-5.056l-.897 3.898zm-.787-.181l.787.181.897-3.898-.786-.181-.898 3.898z" fill="#3E4056" mask="url(#ga)"/></g></svg>