<?xml version="1.0" encoding="utf-8"?><svg viewBox="0 0 50 32" xmlns="http://www.w3.org/2000/svg" xmlns:xlink="http://www.w3.org/1999/xlink"><style>:root>svg{display:none}:root>svg:target{display:block}</style><svg fill="none" viewBox="0 0 16 16" id="arrow" xmlns="http://www.w3.org/2000/svg"><path d="M4 6l4 4 4-4" stroke="#3E4056" stroke-width="2" stroke-linecap="round" stroke-linejoin="round" opacity=".4"/></svg><svg fill="none" viewBox="0 0 20 20" id="block-user" xmlns="http://www.w3.org/2000/svg"><path opacity=".01" fill="#ECF1F8" d="M0 0h20v20H0z"/><mask id="ba" maskUnits="userSpaceOnUse" x="0" y="0" width="20" height="20"><path fill="#fff" d="M0 0h20v20H0z"/></mask><g mask="url(#ba)" stroke="#3E4056" stroke-width="2"><path d="M14.95 14.95a7 7 0 11-9.9-9.9 7 7 0 019.9 9.9zM7 13l6-6M13 13L7 7"/></g></svg><svg fill="none" viewBox="0 0 20 20" id="edit" xmlns="http://www.w3.org/2000/svg"><path fill-rule="evenodd" clip-rule="evenodd" d="M10.896 3.414a2 2 0 012.829 0l2.828 2.829a2 2 0 010 2.828L9.605 16.02a.5.5 0 01-.307.144l-3.716.35a2 2 0 01-2.176-2.207l.396-3.642a.5.5 0 01.143-.3l6.951-6.95zm.707 2.122a1 1 0 011.414 0l1.414 1.415a1 1 0 010 1.414l-.708.708-2.828-2.829.708-.708zM9.48 7.66l-3.537 3.537-.414 2.066a1 1 0 001.177 1.176l2.065-.413 3.537-3.537L9.48 7.659z" fill="#F05D63"/></svg><svg fill="none" viewBox="0 0 16 14" id="heart" xmlns="http://www.w3.org/2000/svg"><path fill-rule="evenodd" clip-rule="evenodd" d="M8 8.093C7.18 9.255 5.908 10 4.48 10 2.006 10 0 7.761 0 5s2.006-5 4.48-5C5.908 0 7.18.745 8 1.907 8.82.745 10.092 0 11.52 0 13.994 0 16 2.239 16 5s-2.006 5-4.48 5c-1.428 0-2.7-.745-3.52-1.907z" fill="#FB5F8A"/><mask id="da" maskUnits="userSpaceOnUse" x="0" y="0" width="16" height="10"><path fill-rule="evenodd" clip-rule="evenodd" d="M8 8.093C7.18 9.255 5.908 10 4.48 10 2.006 10 0 7.761 0 5s2.006-5 4.48-5C5.908 0 7.18.745 8 1.907 8.82.745 10.092 0 11.52 0 13.994 0 16 2.239 16 5s-2.006 5-4.48 5c-1.428 0-2.7-.745-3.52-1.907z" fill="#fff"/></mask><g mask="url(#da)"><path fill="#FC719F" d="M0 0h16v16H0z"/><path fill="#ED5267" d="M0 0h16v16H0z"/></g><path fill-rule="evenodd" clip-rule="evenodd" d="M8 14c2.761 0 8-5 8-9H0c0 4 5.239 9 8 9z" fill="#FB5F8A"/><mask id="db" maskUnits="userSpaceOnUse" x="0" y="5" width="16" height="9"><path fill-rule="evenodd" clip-rule="evenodd" d="M8 14c2.761 0 8-5 8-9H0c0 4 5.239 9 8 9z" fill="#fff"/></mask><g mask="url(#db)"><path fill="#FC719F" d="M0 0h16v16H0z"/><path fill="#ED5267" d="M0 0h16v16H0z"/></g></svg><svg fill="none" viewBox="0 0 50 23" id="logo" xmlns="http://www.w3.org/2000/svg"><path fill-rule="evenodd" clip-rule="evenodd" d="M5.071 1.088c1.66 0 2.964.788 3.911 2.365.134.177.213.397.213.635 0 .586-.477 1.06-1.066 1.06-.484 0-.893-.322-1.023-.762-.287-.456-.563-.76-.826-.913-.317-.202-.727-.303-1.228-.303-.615 0-1.126.174-1.532.52a1.61 1.61 0 00-.608 1.288c0 .713.532 1.287 1.598 1.722l1.465.596c1.193.48 2.065 1.065 2.617 1.756.552.69.828 1.537.828 2.54 0 1.344-.45 2.455-1.351 3.332-.908.883-2.033 1.325-3.378 1.325-1.275 0-2.328-.376-3.16-1.127-.817-.75-1.328-1.807-1.531-3.17l.02-.004a1.136 1.136 0 011.122-1.35c.63 0 1.142.51 1.142 1.136v.011c.105.706.27 1.204.494 1.494.457.631 1.123.946 1.998.946.692 0 1.266-.23 1.723-.69.456-.46.685-1.044.685-1.751 0-.284-.04-.544-.12-.78a1.978 1.978 0 00-.37-.654 2.962 2.962 0 00-.652-.558 6.29 6.29 0 00-.952-.497l-1.417-.587C1.662 7.823.657 6.586.657 4.958c0-1.097.421-2.015 1.265-2.753.844-.745 1.893-1.117 3.15-1.117zm7.671 21.382c.54 0 .996-.364 1.131-.86l.617-1.47 6.937-13.374h-2.416l-2.646 5.3-2.835-5.3h-2.483l4.167 7.505-3.39 6.307a1.16 1.16 0 00-.2.372l-.026.05h.012a1.17 1.17 0 001.132 1.47zM23.796 6.766h2.15v.852c.75-.738 1.593-1.107 2.532-1.107 1.078 0 1.918.337 2.521 1.012.52.574.78 1.511.78 2.81v5.65h-2.15v-5.148c0-.908-.127-1.536-.38-1.883-.248-.353-.698-.53-1.352-.53-.71 0-1.214.234-1.513.7-.291.461-.437 1.266-.437 2.414v4.447h-2.15V6.766zm13.806 1.988v7.23h-2.14v-7.23h-.914V6.766h.913V3.388h2.141v3.378h1.665v1.988h-1.665zM42.027 0h2.14v7.533C44.93 6.85 45.77 6.51 46.69 6.51c1.047 0 1.884.337 2.512 1.012.533.587.799 1.524.799 2.81v5.65h-2.14v-5.45c0-.738-.132-1.273-.396-1.604-.263-.332-.686-.497-1.27-.497-.748 0-1.275.23-1.58.69-.297.467-.447 1.269-.447 2.404v4.457h-2.14V0z" fill="#3E4056"/></svg><svg fill="none" viewBox="0 0 32 32" id="medium" xmlns="http://www.w3.org/2000/svg"><path opacity=".01" fill="#EFF3F6" d="M0 0h32v32H0z"/><path d="M9.897 11.652a.642.642 0 00-.201-.535L8.202 9.275V9h4.638l3.586 8.048L19.578 9H24v.275l-1.277 1.253a.386.386 0 00-.142.367v9.21a.386.386 0 00.142.366l1.247 1.254V22h-6.274v-.275l1.292-1.284c.127-.13.127-.168.127-.367V12.63l-3.593 9.34h-.486l-4.183-9.34v6.26a.876.876 0 00.232.718l1.68 2.086v.275H8v-.275l1.68-2.086c.18-.19.26-.457.217-.718v-7.238z" fill="#3E3F58"/></svg><svg fill="none" viewBox="0 0 32 32" id="notifications" xmlns="http://www.w3.org/2000/svg"><g opacity=".98"><path opacity=".01" fill="#EFF3F6" d="M0 0h32v32H0z"/><mask id="ga" fill="#fff"><path fill-rule="evenodd" clip-rule="evenodd" d="M17.647 22.4c0 .88-.741 1.6-1.647 1.6s-1.647-.72-1.647-1.6h3.294zM16 11.512l-.787.181c-1.515.349-2.566 1.643-2.566 3.107V19.6h8.317l.389-.4.412.4L23 20.8v.8H9v-.8l1.235-1.2.412-.4v-4.4c0-2.456 1.754-4.512 4.118-5.056V9.2c0-.664.551-1.2 1.235-1.2.683 0 1.235.536 1.235 1.2v.544c2.364.544 4.118 2.6 4.118 5.056v4.4h-2v-4.4c0-1.464-1.05-2.758-2.566-3.107L16 11.512z"/></mask><path d="M17.647 22.4h2v-2h-2v2zm-3.294 0v-2h-2v2h2zm.86-10.707l.449 1.95-.449-1.95zm.787-.181l.449-1.95L16 9.46l-.449.103.449 1.949zM12.647 19.6h-2v2h2v-2zm8.317 0v2h.846l.589-.606-1.435-1.394zm.8 0l-1.393 1.435 1.394-1.435zM23 20.8h2v-.846l-.606-.589L23 20.8zm0 .8v2h2v-2h-2zm-14 0H7v2h2v-2zm0-.8l-1.394-1.435-.606.59v.845h2zm1.235-1.2l-1.393-1.435 1.393 1.435zm.412-.4l1.394 1.435.606-.59V19.2h-2zm4.118-9.456l.448 1.949 1.552-.357V9.744h-2zm2.47 0h-2v1.592l1.552.357.448-1.949zm2.118 9.456h-2v2h2v-2zm-2.566-7.507l-.449 1.95.449-1.95zM16 26c1.955 0 3.647-1.561 3.647-3.6h-4c0-.279.21-.4.353-.4v4zm-3.647-3.6c0 2.039 1.692 3.6 3.647 3.6v-4c.144 0 .353.121.353.4h-4zm3.294-2h-1.294v4h1.294v-4zm.353 0h-.353v4H16v-4zm.353 0H16v4h.353v-4zm1.294 0h-1.294v4h1.294v-4zm-1.985-6.758l.787-.181-.898-3.898-.786.181.897 3.898zM14.647 14.8c0-.48.355-1.006 1.015-1.158l-.897-3.898c-2.372.546-4.118 2.607-4.118 5.056h4zm0 4.4v-4.4h-4v4.4h4zm0 .4v-.4h-4v.4h4zm6.317-2h-8.317v4h8.317v-4zm-1.046.206l-.388.4 2.869 2.788.389-.4-2.87-2.788zm3.24.36l-.412-.4-2.787 2.869.412.4 2.787-2.87zm1.236 1.2l-1.236-1.2-2.787 2.869 1.235 1.2 2.788-2.87zM25 21.6v-.8h-4v.8h4zm-2.777 2H23v-4h-.777v4zM21 23.6h1.223v-4H21v4zm-.047 0H21v-4h-.047v4zm-9.906 0h9.906v-4h-9.906v4zm-.047 0h.047v-4H11v4zm-1.223 0H11v-4H9.777v4zM9 23.6h.777v-4H9v4zm-2-2.8v.8h4v-.8H7zm1.842-2.635l-1.236 1.2 2.788 2.87 1.235-1.2-2.787-2.87zm.411-.4l-.411.4 2.787 2.87.412-.4-2.788-2.87zM8.647 14.8v4.4h4v-4.4h-4zm5.67-7.005c-3.212.74-5.67 3.557-5.67 7.005h4c0-1.464 1.05-2.758 2.566-3.107l-.897-3.898zM12.764 9.2v.544h4V9.2h-4zM16 6c-1.733 0-3.235 1.377-3.235 3.2h4c0 .495-.399.8-.765.8V6zm3.235 3.2C19.235 7.377 17.733 6 16 6v4a.784.784 0 01-.765-.8h4zm0 .544V9.2h-4v.544h4zm4.118 5.056c0-3.448-2.458-6.266-5.67-7.005l-.896 3.898c1.515.349 2.566 1.643 2.566 3.107h4zm0 4.4v-4.4h-4v4.4h4zm-4 2h2v-4h-2v4zm-2-6.4v4.4h4v-4.4h-4zm-1.015-1.158c.66.152 1.015.678 1.015 1.158h4c0-2.449-1.747-4.51-4.118-5.056l-.897 3.898zm-.787-.181l.787.181.897-3.898-.786-.181-.898 3.898z" fill="#3E4056" mask="url(#ga)"/></g></svg><svg fill="none" viewBox="0 0 20 20" id="report-user" xmlns="http://www.w3.org/2000/svg"><path opacity=".01" fill="#ECF1F8" d="M0 0h20v20H0z"/><mask id="ha" maskUnits="userSpaceOnUse" x="0" y="0" width="20" height="20"><path fill="#fff" d="M0 0h20v20H0z"/></mask><g mask="url(#ha)"><path opacity=".01" fill="#C3CADF" d="M0 0h20v20H0z"/><path d="M4 17a2 2 0 01-2-2V3a2 2 0 012-2h10a2 2 0 012 2v1" stroke="#3E4056" stroke-width="2"/><rect x="5" y="4" width="8" height="2" rx="1" fill="#3E4056"/><path fill-rule="evenodd" clip-rule="evenodd" d="M5 9a1 1 0 011-1h4l-2 2H6a1 1 0 01-1-1zM13.893 6.928a2 2 0 012.829 0l2.828 2.828a2 2 0 010 2.829l-6.944 6.943a.5.5 0 01-.306.144l-3.715.35a2 2 0 01-2.176-2.206l.394-3.642a.5.5 0 01.144-.3l6.946-6.946zm.707 2.121a1 1 0 011.415 0l1.414 1.414a1 1 0 010 1.414l-.707.707-2.829-2.828.707-.707zm-2.12 2.121l-3.536 3.535-.413 2.065a1 1 0 001.177 1.177l2.065-.413 3.534-3.535-2.828-2.829z" fill="#3E4056"/></g></svg><svg fill="none" viewBox="0 0 32 32" id="share-recap" xmlns="http://www.w3.org/2000/svg"><g opacity=".98"><path opacity=".01" fill="#EFF3F6" d="M0 0h32v32H0z"/><rect x="10" y="12" width="12" height="10" rx="2" stroke="#3E4056" stroke-width="2"/><path clip-rule="evenodd" d="M12.424 12.471c1.082.394 3.047.156 3.425-.882.378-1.037-.975-2.483-2.056-2.876-1.082-.394-2.264.128-2.642 1.166-.378 1.038.192 2.199 1.273 2.592z" stroke="#3E4056" stroke-width="2"/><path clip-rule="evenodd" d="M19.576 12.471c-1.082.394-3.047.156-3.425-.882-.378-1.037.975-2.483 2.056-2.876 1.082-.394 2.264.128 2.642 1.166.378 1.038-.192 2.199-1.273 2.592z" stroke="#3E4056" stroke-width="2"/><path fill="#3E4056" d="M15 12h2v10h-2z"/><g fill="#fff"><mask id="ia"><path d="M8 13a2 2 0 012-2h12a2 2 0 012 2v3a1 1 0 01-1 1H9a1 1 0 01-1-1v-3z"/></mask><path d="M8 13a2 2 0 012-2h12a2 2 0 012 2v3a1 1 0 01-1 1H9a1 1 0 01-1-1v-3z" stroke="#3E4056" stroke-width="4" mask="url(#ia)"/></g></g></svg><svg fill="none" viewBox="0 0 16 16" id="view" xmlns="http://www.w3.org/2000/svg"><path opacity=".01" fill="#ECF1F8" d="M0 0h16v16H0z"/><path fill-rule="evenodd" clip-rule="evenodd" d="M15 8a2.306 2.306 0 01-.929 1.814L7.96 14.496c-.732.554-1.73.66-2.57.275-.842-.386-1.381-1.196-1.39-2.09V3.319c.009-.893.548-1.703 1.39-2.089a2.533 2.533 0 012.57.275l6.111 4.682c.58.439.922 1.106.929 1.814z" fill="#3E4056"/><mask id="ja" maskUnits="userSpaceOnUse" x="4" y="1" width="11" height="14"><path fill-rule="evenodd" clip-rule="evenodd" d="M15 8a2.306 2.306 0 01-.929 1.814L7.96 14.496c-.732.554-1.73.66-2.57.275-.842-.386-1.381-1.196-1.39-2.09V3.319c.009-.893.548-1.703 1.39-2.089a2.533 2.533 0 012.57.275l6.111 4.682c.58.439.922 1.106.929 1.814z" fill="#fff"/></mask><g mask="url(#ja)"><path fill="#3E4056" d="M0 0h16v16H0z"/></g></svg></svg>